#define fefbff321855453fdd8527756ac44e65ZY7vugDcvehCei1p_width 48
#define fefbff321855453fdd8527756ac44e65ZY7vugDcvehCei1p_height 48
static char fefbff321855453fdd8527756ac44e65ZY7vugDcvehCei1p_bits[] = {
  0x00, 0x00, 0xE0, 0x07, 0x00, 0x00, 0x00, 0x00, 0xE0, 0x07, 0x00, 0x00, 
  0x00, 0x00, 0xE0, 0x07, 0x00, 0x00, 0x00, 0x00, 0x1C, 0xF8, 0x01, 0x00, 
  0x00, 0x00, 0x1C, 0xF8, 0x01, 0x00, 0x00, 0x00, 0x1C, 0xF8, 0x01, 0x00, 
  0x00, 0xF0, 0x03, 0x00, 0x0E, 0x00, 0x00, 0xF0, 0x03, 0x00, 0x0E, 0x00, 
  0x00, 0xF0, 0x03, 0x00, 0x0E, 0x00, 0x00, 0x0E, 0x00, 0x00, 0xF0, 0x03, 
  0x00, 0x0E, 0x00, 0x00, 0xF0, 0x03, 0x00, 0x0E, 0x00, 0x00, 0xF0, 0x03, 
  0xF8, 0x01, 0x00, 0x00, 0xF0, 0x1F, 0xF8, 0x01, 0x00, 0x00, 0xF0, 0x1F, 
  0xF8, 0x01, 0x00, 0x00, 0xF0, 0x1F, 0x38, 0x7E, 0x00, 0xC0, 0x0F, 0x1C, 
  0x38, 0x7E, 0x00, 0xC0, 0x0F, 0x1C, 0x38, 0x7E, 0x00, 0xC0, 0x0F, 0x1C, 
  0x38, 0x80, 0x03, 0x38, 0x00, 0x1C, 0x38, 0x80, 0x03, 0x38, 0x00, 0x1C, 
  0x38, 0x80, 0x03, 0x38, 0x00, 0x1C, 0x38, 0x00, 0xFC, 0x07, 0x00, 0x1C, 
  0x38, 0x00, 0xFC, 0x07, 0x00, 0x1C, 0x38, 0x00, 0xFC, 0x07, 0x00, 0x1C, 
  0x38, 0x00, 0xE0, 0x00, 0x00, 0x1C, 0x38, 0x00, 0xE0, 0x00, 0x00, 0x1C, 
  0x38, 0x00, 0xE0, 0x00, 0x00, 0x1C, 0x38, 0x00, 0xE0, 0x00, 0x00, 0x1C, 
  0x38, 0x00, 0xE0, 0x00, 0x00, 0x1C, 0x38, 0x00, 0xE0, 0x00, 0x00, 0x1C, 
  0x38, 0x00, 0xE0, 0x00, 0x00, 0x1C, 0x38, 0x00, 0xE0, 0x00, 0x00, 0x1C, 
  0x38, 0x00, 0xE0, 0x00, 0x00, 0x1C, 0xF8, 0x01, 0xE0, 0x00, 0x00, 0x1C, 
  0xF8, 0x01, 0xE0, 0x00, 0x00, 0x1C, 0xF8, 0x01, 0xE0, 0x00, 0x00, 0x1C, 
  0x00, 0x0E, 0xE0, 0x00, 0xF0, 0x03, 0x00, 0x0E, 0xE0, 0x00, 0xF0, 0x03, 
  0x00, 0x0E, 0xE0, 0x00, 0xF0, 0x03, 0x00, 0xF0, 0xE3, 0x00, 0x0E, 0x00, 
  0x00, 0xF0, 0xE3, 0x00, 0x0E, 0x00, 0x00, 0xF0, 0xE3, 0x00, 0x0E, 0x00, 
  0x00, 0x00, 0xFC, 0xF8, 0x01, 0x00, 0x00, 0x00, 0xFC, 0xF8, 0x01, 0x00, 
  0x00, 0x00, 0xFC, 0xF8, 0x01, 0x00, 0x00, 0x00, 0xE0, 0x07, 0x00, 0x00, 
  0x00, 0x00, 0xE0, 0x07, 0x00, 0x00, 0x00, 0x00, 0xE0, 0x07, 0x00, 0x00, 
  };
